HIERARCHY
ROOT ui
{
	 OFFSET 0 0 0
	 CHANNELS 3 XPosition YPosition Z Position
	 EndSite
	 {
	 OFFSET 0 -1 0
	 }
}
ROOT li
{
	 OFFSET 0 0 0
	 CHANNELS 3 XPosition YPosition Z Position
	 EndSite
	 {
	 OFFSET 0 -1 0
	 }
}
ROOT ul
{
	 OFFSET 0 0 0
	 CHANNELS 3 XPosition YPosition Z Position
	 EndSite
	 {
	 OFFSET 0 -1 0
	 }
}
ROOT ll
{
	 OFFSET 0 0 0
	 CHANNELS 3 XPosition YPosition Z Position
	 EndSite
	 {
	 OFFSET 0 -1 0
	 }
}
ROOT tt
{
	 OFFSET 0 0 0
	 CHANNELS 3 XPosition YPosition Z Position
	 EndSite
	 {
	 OFFSET 0 -1 0
	 }
}
ROOT tb
{
	 OFFSET 0 0 0
	 CHANNELS 3 XPosition YPosition Z Position
	 EndSite
	 {
	 OFFSET 0 -1 0
	 }
}
ROOT td
{
	 OFFSET 0 0 0
	 CHANNELS 3 XPosition YPosition Z Position
	 EndSite
	 {
	 OFFSET 0 -1 0
	 }
}
ROOT v
{
	 OFFSET 0 0 0
	 CHANNELS 3 XPosition YPosition Z Position
	 EndSite
	 {
	 OFFSET 0 -1 0
	 }
}
ROOT bn
{
	 OFFSET 0 0 0
	 CHANNELS 3 XPosition YPosition Z Position
	 EndSite
	 {
	 OFFSET 0 -1 0
	 }
}
MOTION
Frames: 13
Frame Time: 0.002
-0.00168422794342041	-0.00440144681930542	0		0.546911376953125	-2.455314697265625	0		-0.9918086547851562	0.05914836502075195	0		-0.3773265686035156	-2.97287060546875	0		1.9707318115234376	-0.6304395751953125	0		3.587401123046875	0.10027358245849609	0		4.95253271484375	-0.09317871856689453	0		5.84652001953125	0.4059951171875	0		-0.2563117370605469	5.88232080078125	0		
0.018239042282104493	-5.335829854011536E-4	0		0.5458543090820313	-2.457092529296875	0		-0.9981981201171874	0.043380790710449216	0		-0.44283575439453127	-2.940677001953125	0		1.972996826171875	-0.6702109375	0		3.58497802734375	0.08265099334716797	0		4.94340087890625	-0.09263214111328125	0		5.8427568359375	0.3913359069824219	0		-0.25574659729003907	5.88047509765625	0		
-0.005974314212799072	-0.008004929542541504	0		0.554734130859375	-2.4660546875	0		-0.9845897827148438	0.024271087646484377	0		-0.392548583984375	-2.925327392578125	0		1.9894815673828126	-0.6992297973632813	0		3.575102294921875	0.09712226867675781	0		4.94818798828125	-0.10032989501953125	0		5.83902685546875	0.37663189697265625	0		-0.3742809753417969	5.87045849609375	0		
0.023025001525878906	-0.005337873935699463	0		0.545946044921875	-2.456770751953125	0		-1.0228172607421875	0.012936765670776368	0		-0.4827606811523438	-2.879816162109375	0		1.977238037109375	-0.7138295288085937	0		3.5677431640625	0.07751931762695312	0		4.9481484375	-0.09998011779785156	0		5.836044921875	0.36184982299804686	0		-0.25544235229492185	5.87970703125	0		
-0.006890854835510254	2.104569971561432E-4	0		0.546065673828125	-2.456662353515625	0		-0.9651943969726563	-0.011926204681396484	0		-0.4242090759277344	-2.85365966796875	0		1.9599200439453126	-0.736386474609375	0		3.563665283203125	0.07283424377441407	0		4.94815625	-0.09966213989257812	0		5.8436943359375	0.33104290771484374	0		-0.3880603332519531	5.85882763671875	0		
0.023075611114501952	-0.005209054946899414	0		0.542171875	-2.460529296875	0		-0.9744546508789063	-0.031787757873535154	0		-0.4525547790527344	-2.82319140625	0		1.942665283203125	-0.7579810180664063	0		3.5655078125	0.06002330780029297	0		4.93999267578125	-0.1132506103515625	0		5.83659912109375	0.33188284301757814	0		-0.2559596862792969	5.87980908203125	0		
-0.010801497459411622	-0.0026795411109924315	0		0.5403385009765626	-2.4634658203125	0		-0.9196029663085937	-0.04767850875854492	0		-0.4479080810546875	-2.796274658203125	0		1.9343917236328125	-0.78375146484375	0		3.53954931640625	0.05760989761352539	0		4.95494580078125	-0.12222544097900391	0		5.82220361328125	0.30180154418945315	0		-0.25617031860351563	5.87980078125	0		
-0.0057561898231506346	-0.007791574001312256	0		0.4985503234863281	-2.4658271484375	0		-1.0186505126953125	-0.05824047470092773	0		-0.4720816650390625	-2.759953857421875	0		1.93717138671875	-0.8087274780273438	0		3.535454345703125	0.043825042724609374	0		4.93918408203125	-0.11475356292724609	0		5.8222939453125	0.3022745361328125	0		-0.25340536499023436	5.8767060546875	0		
0.0015022989511489868	-9.74150002002716E-4	0		0.5538160400390625	-2.467715576171875	0		-0.9696696166992187	-0.07011946868896485	0		-0.4612741394042969	-2.727211181640625	0		1.940984619140625	-0.83375341796875	0		3.5617841796875	0.05554604339599609	0		4.93934228515625	-0.11455597686767578	0		5.82240673828125	0.30270144653320313	0		-0.372746826171875	5.8664404296875	0		
-0.0013668849468231202	-0.0040394549369812014	0		0.5193196411132812	-2.455263427734375	0		-0.9757327270507813	-0.08619276428222657	0		-0.46840826416015624	-2.69223095703125	0		1.948978515625	-0.848874755859375	0		3.513810302734375	0.04637019348144531	0		4.93643408203125	-0.12034004974365234	0		5.8154150390625	0.305076171875	0		-0.2547198944091797	5.87750732421875	0		
-0.006108996868133545	-1.0994400084018707E-4	0		0.5395049438476562	-2.465681640625	0		-0.9736683349609375	-0.0954249038696289	0		-0.4986260375976562	-2.6639365234375	0		1.9287406005859375	-0.8805994873046875	0		3.519836181640625	0.035339385986328124	0		4.93254638671875	-0.1261365661621094	0		5.81260888671875	0.2899482421875	0		-0.25486637878417967	5.87734619140625	0		
-0.005017300128936767	-0.008301362037658692	0		0.48794509887695314	-2.460040283203125	0		-0.976494873046875	-0.09861355590820313	0		-0.4959080505371094	-2.64117578125	0		1.9426710205078126	-0.9028716430664062	0		3.49974658203125	0.015675417900085448	0		4.92864599609375	-0.13396051025390626	0		5.80197021484375	0.27506155395507814	0		-0.25500083923339845	5.877154296875	0		
-0.009714068412780762	-0.003430354118347168	0		0.540235107421875	-2.465998291015625	0		-0.9585054321289063	-0.11514383697509765	0		-0.49520962524414064	-2.62041064453125	0		1.9186370849609375	-0.9235969848632812	0		3.51800048828125	0.017405939102172852	0		4.928880859375	-0.13387457275390624	0		5.80874853515625	0.30620095825195315	0		-0.3742713928222656	5.86773046875	0		
